PathFileType	4	(X/Y/Z)	C:\Users\Basilio\Documents\Thesis Gigler\squatting_fais\c3dfiles\040\SLS_pre_front5\markers_experimental.trc
DataRate	CameraRate	NumFrames	NumMarkers	Units	OrigDataRate	OrigDataStartFrame	OrigNumFrames
200.000000	200.000000	4	62	mm	200.000000	1145	1309
Frame#	Time	FHD			LBHD			RBHD			C7			T10			CLAV			LSHO			LUUPA			LMUPA			LDUPA			LLEP			LMEP			LRAD			LUL			LRFIN			RSHO			RUPA1			RMUPA			RDUPA			RLEP			RMEP			RRAD			RUL			RUFIN			LASI			RASI			USACR			LSACR			RSACR			LTHI1			LTHI2			LTHI3			LTHI4			LLFC			LMFC			LTIB1			LTIB2			LTIB3			LTIB4			LLMAL			LMMAL			LHEE			LMT1			LMT2			LMT5			RTHI			RTHI2			RTHI3			RTHI4			RLFC			RMFC			RTIB1			RTIB2			RTIB3			RTIB4			RLMAL			RMMAL			RHEE			RMT1			RMT2			RMT5			*61			
		X1	Y1	Z1	X2	Y2	Z2	X3	Y3	Z3	X4	Y4	Z4	X5	Y5	Z5	X6	Y6	Z6	X7	Y7	Z7	X8	Y8	Z8	X9	Y9	Z9	X10	Y10	Z10	X11	Y11	Z11	X12	Y12	Z12	X13	Y13	Z13	X14	Y14	Z14	X15	Y15	Z15	X16	Y16	Z16	X17	Y17	Z17	X18	Y18	Z18	X19	Y19	Z19	X20	Y20	Z20	X21	Y21	Z21	X22	Y22	Z22	X23	Y23	Z23	X24	Y24	Z24	X25	Y25	Z25	X26	Y26	Z26	X27	Y27	Z27	X28	Y28	Z28	X29	Y29	Z29	X30	Y30	Z30	X31	Y31	Z31	X32	Y32	Z32	X33	Y33	Z33	X34	Y34	Z34	X35	Y35	Z35	X36	Y36	Z36	X37	Y37	Z37	X38	Y38	Z38	X39	Y39	Z39	X40	Y40	Z40	X41	Y41	Z41	X42	Y42	Z42	X43	Y43	Z43	X44	Y44	Z44	X45	Y45	Z45	X46	Y46	Z46	X47	Y47	Z47	X48	Y48	Z48	X49	Y49	Z49	X50	Y50	Z50	X51	Y51	Z51	X52	Y52	Z52	X53	Y53	Z53	X54	Y54	Z54	X55	Y55	Z55	X56	Y56	Z56	X57	Y57	Z57	X58	Y58	Z58	X59	Y59	Z59	X60	Y60	Z60	X61	Y61	Z61	X62	Y62	Z62	

1146	5.725000000000001	-53.27978134155275	1675.44921875	-1166.3349609375	-181.3465881347657	1696.07861328125	-1221.253784179688	-255.2895965576172	1709.244262695313	-1096.280151367188	-323.6766662597657	1577.303955078125	-1132.521606445313	-383.0895690917969	1249.797607421875	-1080.746704101563	-211.8012695312501	1484.787963867188	-1118.048217773438	-265.7681884765626	1509.163696289063	-1307.286987304688	-429.2051391601564	1348.793701171875	-1330.592651367188	-410.8123779296876	1304.830200195313	-1318.279052734375	-471.6715393066407	1296.949951171875	-1316.654174804688	-517.2603149414064	1260.533813476563	-1294.345336914063	-514.7557373046876	1274.184448242188	-1230.046630859375	-571.5034790039064	981.4539184570315	-1223.363159179688	-626.3737792968751	1010.263854980469	-1271.81591796875	-637.9512939453126	906.3717041015627	-1218.514282226563	-275.3705749511719	1541.669677734375	-942.9155273437502	-446.0002441406251	1403.842163085938	-868.5125122070315	-423.5252380371095	1361.729614257813	-853.544860839844	-481.3283081054689	1345.92333984375	-857.4099121093752	-509.1340942382814	1290.339965820313	-844.8547973632815	-515.0061645507814	1274.317138671875	-919.880310058594	-513.9028930664064	995.206237792969	-809.7770996093752	-577.6609497070314	1026.341186523438	-781.4505615234377	-555.4604492187501	911.3366699218752	-783.4321289062502	-196.8666992187501	1073.769409179688	-1180.202514648438	-197.0767059326172	1086.573364257813	-949.8065185546877	-383.2145385742188	1108.9755859375	-1059.32421875	-380.1423339843751	1075.798461914063	-1085.610229492188	-388.3039550781251	1080.198974609375	-1029.070556640625	-312.9163208007813	812.5626220703127	-1212.83544921875	-272.5272521972657	738.3723144531251	-1216.407470703125	-225.9706115722657	743.8744506835939	-1223.991333007813	-290.5296020507813	685.2521972656251	-1199.005249023438	-267.9917297363282	552.2776489257814	-1184.204956054688	-257.2265014648438	541.0037841796876	-1052.766479492188	-248.7845611572266	327.4826354980469	-1127.197875976563	-324.0979003906251	294.2857055664063	-1159.52001953125	-282.4416503906251	282.7019653320313	-1147.991821289063	-279.3482055664063	206.1212615966797	-1105.754638671875	-354.6953735351563	126.860954284668	-1106.1103515625	-315.8966979980469	141.7601013183594	-1029.001708984375	-413.5603332519532	96.66433715820315	-1051.2568359375	-200.0568237304688	57.00585937500001	-1050.060424804688	-204.7457733154297	50.51868438720705	-1097.305541992188	-260.8627929687501	36.07585144042969	-1138.5205078125	-206.4340057373047	815.4608154296877	-866.8520507812502	-162.1428833007813	765.0590209960939	-874.8169555664065	-130.3891906738282	773.5466918945315	-882.0151367187502	-177.3874206542969	684.9526367187501	-884.5301513671877	-140.2969055175782	555.5593261718751	-895.1755371093752	-138.1338500976563	548.4182128906251	-1029.672973632813	-46.84480285644532	387.5066528320314	-919.8094482421877	-96.41381835937503	295.4046936035157	-893.8506469726565	-51.87679290771486	302.8168945312501	-904.6614379882815	-24.32176399230958	262.3016357421876	-938.5004882812502	-43.29058456420899	136.0742950439453	-917.234558105469	-31.24510955810548	157.2618408203125	-1003.037841796875	-92.87734222412111	77.01049804687501	-972.595642089844	122.1087341308594	127.9246444702149	-988.2425537109377	118.8267974853516	128.4049987792969	-948.0052490234377	88.37731170654298	90.68478393554689	-897.5054321289065	nan	nan	nan	
1147	5.73	-52.8308563232422	1675.123779296875	-1165.805053710938	-180.752685546875	1696.047119140625	-1220.875732421875	-254.970199584961	1709.339477539063	-1096.02978515625	-323.3438415527344	1577.29345703125	-1132.366455078125	-383.1635131835938	1249.997192382813	-1080.561889648438	-211.7485961914063	1484.678833007813	-1117.7119140625	-265.4211730957032	1508.981201171875	-1306.900756835938	-428.2649230957032	1347.976196289063	-1330.657958984375	-409.7132263183595	1303.761962890625	-1318.414184570313	-470.4324645996095	1295.80126953125	-1317.005737304688	-515.9886474609376	1259.271484375	-1294.668212890625	-513.9354858398439	1273.126953125	-1230.5849609375	-569.0610351562501	980.1733398437502	-1223.410766601563	-623.9823608398439	1008.529052734375	-1272.384399414063	-634.8216552734376	904.0554809570315	-1218.942749023438	-275.1996154785157	1541.557373046875	-942.7683105468752	-445.6457519531251	1403.173583984375	-868.2144775390627	-423.1140747070314	1361.354125976563	-853.4353637695315	-480.8841552734376	1345.222534179688	-857.2216796875002	-508.3034973144532	1289.719848632813	-844.6796875000002	-514.3386230468751	1273.545043945313	-919.7138671875002	-512.8890991210939	994.761413574219	-808.637145996094	-576.5719604492189	1025.664794921875	-780.9251708984377	-553.6970825195314	911.0748291015627	-782.559265136719	-197.0850219726563	1073.722412109375	-1179.9375	-197.4683685302735	1086.75341796875	-949.5328369140627	-383.4996032714844	1109.077880859375	-1059.046142578125	-380.4417724609376	1075.829833984375	-1085.235717773438	-388.6875610351564	1080.176635742188	-1028.717163085938	-313.1818237304688	812.6203613281252	-1212.635864257813	-272.8536987304688	738.4423217773439	-1216.016479492188	-226.2222290039063	743.9561767578126	-1224.25439453125	-290.9693603515626	685.3520507812501	-1198.711791992188	-268.4462890625001	552.3576660156251	-1184.0390625	-257.9157409667969	540.8668212890626	-1052.545532226563	-249.1848907470704	327.1640930175782	-1126.921752929688	-324.3169555664063	294.3565063476563	-1159.43310546875	-282.6215209960938	282.8027343750001	-1148.026123046875	-279.4289855957032	206.4203186035157	-1105.799194335938	-354.8657836914063	126.8508911132813	-1106.112670898438	-315.8888549804688	141.7132873535157	-1028.99658203125	-413.5746459960939	96.65811157226565	-1051.240478515625	-199.4538726806641	56.65661239624025	-1050.348754882813	-204.6822662353516	50.62681961059572	-1097.338500976563	-260.9131164550782	36.08348846435548	-1138.5205078125	-205.7091674804688	815.7488403320315	-866.5698242187502	-161.3413696289063	765.6610717773439	-874.444030761719	-129.6704559326172	773.8895263671877	-881.959167480469	-176.4816436767578	685.4187011718751	-884.073181152344	-139.6895599365235	555.9455566406251	-894.8958740234377	-137.9879760742188	548.5664672851564	-1029.497680664063	-47.10083007812501	387.655731201172	-919.610046386719	-97.53291320800784	295.5311279296876	-893.6456298828127	-53.09082794189455	302.3357238769532	-904.8061523437502	-25.83455467224122	262.0796508789063	-938.082702636719	-45.47546768188477	135.7498321533203	-916.855895996094	-33.04457092285157	156.6791381835938	-1002.633178710938	-95.22803497314455	76.4140090942383	-971.6040649414065	119.8561096191407	127.0207748413086	-988.7106933593752	116.4018630981446	127.4378356933594	-948.3880615234377	86.57040405273439	89.65930175781251	-897.331726074219	nan	nan	nan	
1148	5.735	-52.50987243652345	1674.882202148438	-1165.469116210938	-180.2402038574219	1695.975952148438	-1220.592041015625	-254.5690002441407	1709.170532226563	-1095.737182617188	-322.9610290527344	1577.401611328125	-1132.193969726563	-383.1461486816407	1250.109375	-1080.46875	-211.5296783447266	1484.08251953125	-1117.531616210938	-264.6927795410157	1508.470336914063	-1306.67333984375	-427.3708801269532	1347.125	-1330.823364257813	-408.7079162597657	1303.566772460938	-1318.369140625	-469.4545288085939	1294.88623046875	-1317.364135742188	-514.3417358398439	1257.836791992188	-1295.193725585938	-513.2230224609376	1272.119018554688	-1231.03173828125	-566.2691650390626	979.570251464844	-1223.47021484375	-621.1489868164064	1006.622253417969	-1272.85888671875	-631.0206909179689	902.158874511719	-1219.60400390625	-275.0840454101563	1541.317138671875	-942.669616699219	-444.4715270996095	1402.6826171875	-867.6841430664065	-422.5567626953126	1360.64892578125	-853.1815185546877	-480.2744750976564	1344.52392578125	-856.919860839844	-507.6585998535157	1288.979614257813	-844.5489501953127	-513.5531616210939	1272.764770507813	-919.3869628906252	-511.2243957519532	994.2619628906252	-807.867614746094	-575.1058959960939	1024.802856445313	-780.2742309570315	-552.2235107421876	909.9952392578127	-781.4552001953127	-197.3760070800782	1073.677612304688	-1179.647583007813	-197.6621093750001	1086.790283203125	-949.4121093750002	-383.8612365722657	1109.131225585938	-1058.658203125	-380.7646484375001	1075.807495117188	-1084.838012695313	-388.9933166503907	1080.18798828125	-1028.481689453125	-313.4743041992188	812.6336669921877	-1212.362670898438	-273.0723876953126	738.5311889648439	-1215.770385742188	-226.5069122314454	743.9766235351564	-1223.933959960938	-291.3277282714844	685.4633789062501	-1198.464477539063	-269.0658569335938	552.4707031250001	-1183.873046875	-257.9559326171876	541.1788940429689	-1052.144653320313	-249.306381225586	327.1759643554688	-1126.888427734375	-324.4817810058594	294.3219299316407	-1159.351928710938	-282.9055786132813	282.8885498046876	-1148.017700195313	-279.7042236328126	206.2565307617188	-1105.667602539063	-354.8865051269532	126.8312149047852	-1106.033447265625	-315.9424438476563	141.6986236572266	-1028.92138671875	-413.5886230468751	96.66740417480472	-1051.1669921875	-200.0524291992188	57.02076339721681	-1050.070922851563	-204.7476959228516	50.54701614379884	-1097.278564453125	-260.9188842773438	36.1124610900879	-1138.517944335938	-205.1064605712891	815.5051879882815	-866.2974243164065	-160.3697662353516	765.9977416992189	-873.9291992187502	-128.8471374511719	774.061218261719	-882.1839599609377	-175.5460968017578	685.3890991210939	-883.6675415039065	-138.6923522949219	556.1375732421876	-894.763122558594	-138.5129699707032	549.0674438476564	-1029.530517578125	-47.27407455444337	387.216033935547	-919.6418457031252	-98.48417663574222	295.0146484375001	-892.6406250000002	-53.77121734619142	302.0395202636719	-904.7836914062502	-27.1035270690918	261.7623596191407	-938.0208129882815	-46.98152542114259	135.5265655517578	-915.789489746094	-35.79064941406251	156.2167510986328	-1002.189636230469	-97.78545379638675	76.18276214599611	-970.6273193359377	117.2912750244141	126.0131072998047	-989.0526123046877	114.3856964111328	126.6436462402344	-948.4829101562502	84.43420410156251	89.0948944091797	-897.376159667969	nan	nan	nan	
1149	5.74	-51.7751922607422	1674.387451171875	-1165.222900390625	-179.6996612548828	1695.76708984375	-1220.283935546875	-254.0070800781251	1709.12548828125	-1095.521728515625	-322.6075744628907	1577.42041015625	-1131.982666015625	-383.3558349609376	1250.294921875	-1080.256591796875	-211.2740173339844	1483.916748046875	-1117.359741210938	-264.2218322753907	1508.15966796875	-1306.396240234375	-426.4207763671876	1346.252563476563	-1331.151000976563	-407.4020080566407	1302.453979492188	-1318.395263671875	-468.198699951172	1293.689575195313	-1317.707763671875	-513.4043579101564	1256.579345703125	-1295.798950195313	-512.1962280273439	1270.701904296875	-1231.640991210938	-563.7951660156251	978.3933105468752	-1223.397338867188	-617.9847412109376	1004.368774414063	-1273.697387695313	-627.1735229492189	899.7114868164065	-1220.513549804688	-274.9509582519532	1541.1298828125	-942.4967041015627	-443.9033203125001	1402.0244140625	-867.3189086914065	-422.2521057128907	1360.15576171875	-852.8950195312502	-479.627655029297	1343.877197265625	-856.567077636719	-506.8875732421876	1288.007080078125	-844.1148681640627	-512.5971679687501	1271.775146484375	-919.039245605469	-509.3832092285157	993.4800415039065	-807.1872558593752	-573.4887695312501	1024.090576171875	-779.4671630859377	-549.9722900390626	909.1076660156252	-780.2647094726565	-197.6449584960938	1073.706909179688	-1179.418579101563	-197.8265380859376	1086.947021484375	-949.2984619140627	-384.3135986328126	1109.1796875	-1058.285278320313	-381.0471191406251	1075.77734375	-1084.503051757813	-389.3930053710939	1080.192749023438	-1028.253784179688	-313.8575134277344	812.7536621093752	-1212.098022460938	-273.1815185546876	738.5704345703126	-1215.586303710938	-226.8017578125001	744.0994873046876	-1223.576293945313	-291.6259155273438	685.4948120117189	-1198.197875976563	-269.2932739257813	552.2212524414064	-1183.698974609375	-258.9021911621094	541.1859130859376	-1052.063720703125	-249.5746154785157	327.2288818359376	-1126.784545898438	-324.6242675781251	294.3306274414063	-1159.33642578125	-283.1545104980469	282.9476013183594	-1147.971923828125	-279.7378234863282	206.6624298095704	-1105.682983398438	-354.9665527343751	126.841049194336	-1106.049072265625	-315.9750671386719	141.6612701416016	-1028.869262695313	-413.558074951172	96.64042663574222	-1051.177856445313	-200.0569915771485	57.05481338500978	-1050.100708007813	-204.773910522461	50.59143066406251	-1097.287109375	-260.8242492675782	36.06095504760743	-1138.492553710938	-204.2695312500001	815.6304931640627	-865.6880493164065	-159.7698822021485	766.2371826171876	-873.811218261719	-127.9547882080078	774.394470214844	-882.0805664062502	-174.5539703369141	685.5724487304689	-883.2376708984377	-137.8621978759766	556.5213623046876	-894.556823730469	-138.426742553711	549.1304321289064	-1029.46826171875	-47.94662094116212	387.3045959472657	-919.544128417969	-99.45925903320315	295.2133483886719	-892.416198730469	-54.53582000732423	301.6682128906251	-904.5487060546877	-28.46739959716798	261.1741027832032	-937.7770996093752	-49.0685272216797	135.2154846191407	-915.1223144531252	-38.05709838867188	155.7829895019532	-1001.703430175781	-100.4120101928711	76.02220153808595	-969.607116699219	114.5500259399414	124.7545852661133	-989.3555297851565	112.1311874389649	125.7028198242188	-949.2496337890627	82.37316131591798	88.3553924560547	-897.605163574219	nan	nan	nan	
